<?xml version="1.0"?>
<svg width="850.39" height="850.39" xmlns="http://www.w3.org/2000/svg" xmlns:svg="http://www.w3.org/2000/svg">

 <g class="layer">
  <title>Layer 1</title>
  <g id="ICONS">
   <path d="m850.34,294a43.56,43.56 0 0 0 -5.4,-19.19l-10.6,5.84a31.48,31.48 0 0 1 3.91,13.91l12.09,-0.56z" id="svg_1"/>
   <rect height="12.1" id="svg_2" width="17.35" x="708.15" y="252"/>
   <rect height="12.1" id="svg_3" width="17.35" x="742.85" y="252"/>
   <rect height="17.35" id="svg_4" width="12.1" x="838.29" y="381.05"/>
   <path d="m830.6,427l9.19,7.88a44.22,44.22 0 0 0 9.21,-17.73l-11.72,-3a32.05,32.05 0 0 1 -6.68,12.85z" id="svg_5"/>
   <rect height="17.35" id="svg_6" width="12.1" x="838.29" y="311.65"/>
   <rect height="12.1" id="svg_7" width="17.35" x="769.74" y="438.14"/>
   <rect height="17.35" id="svg_8" width="12.1" x="838.29" y="346.35"/>
   <path d="m813.15,252.53l-1.87,12a32.13,32.13 0 0 1 13.4,5.41l7,-9.89a44.09,44.09 0 0 0 -18.53,-7.52z" id="svg_9"/>
   <rect height="12.1" id="svg_10" width="17.35" x="777.55" y="252"/>
   <path d="m806.3,438.14l-1.87,0l0,12.1l1.87,0a43.65,43.65 0 0 0 17.45,-3.59l-4.75,-11.11a31.87,31.87 0 0 1 -12.7,2.6z" id="svg_11"/>
   <rect height="12.1" id="svg_12" width="8.81" x="578.57" y="78.4"/>
   <rect height="12.1" id="svg_13" width="17.9" x="317.97" y="252"/>
   <rect height="12.1" id="svg_14" width="17.9" x="353.76" y="252"/>
   <rect height="12.1" id="svg_15" width="17.9" x="328.02" y="78.4"/>
   <rect height="12.1" id="svg_16" width="17.9" x="292.22" y="78.4"/>
   <rect height="12.1" id="svg_17" width="17.9" x="246.38" y="252"/>
   <rect height="12.1" id="svg_18" width="17.9" x="282.17" y="252"/>
   <rect height="12.1" id="svg_19" width="17.9" x="256.43" y="78.4"/>
   <rect height="12.1" id="svg_20" width="17.9" x="363.81" y="78.4"/>
   <rect height="12.1" id="svg_21" width="17.9" x="542.78" y="78.4"/>
   <rect height="12.1" id="svg_22" width="17.9" x="506.98" y="78.4"/>
   <rect height="12.1" id="svg_23" width="17.9" x="471.19" y="78.4"/>
   <rect height="12.1" id="svg_24" width="17.9" x="399.6" y="78.4"/>
   <rect height="12.1" id="svg_25" width="17.9" x="435.4" y="78.4"/>
   <path d="m72.3,107.25l-10.63,-5.78a44.1,44.1 0 0 0 -5.31,19.86l12.1,0.31a31.54,31.54 0 0 1 3.84,-14.39z" id="svg_26"/>
   <rect height="12.1" id="svg_27" width="17.9" x="103.2" y="252"/>
   <path d="m96.17,90.79l-1.59,-12a44.15,44.15 0 0 0 -19.18,7.4l6.88,10a31.94,31.94 0 0 1 13.89,-5.4z" id="svg_28"/>
   <rect height="12.1" id="svg_29" width="17.9" x="220.64" y="78.4"/>
   <rect height="17.9" id="svg_30" width="12.1" x="56.34" y="139.38"/>
   <path d="m69.3,227.39a32,32 0 0 1 -0.85,-7.39l0,-9l-12.11,0l0,9a44.39,44.39 0 0 0 1.18,10.17l11.78,-2.78z" id="svg_31"/>
   <rect height="17.9" id="svg_32" width="12.1" x="56.34" y="175.18"/>
   <path d="m76,240.69l-9.23,7.83a44.32,44.32 0 0 0 16.56,12.15l4.69,-11.16a32.26,32.26 0 0 1 -12.02,-8.82z" id="svg_33"/>
   <rect height="12.1" id="svg_34" width="17.9" x="174.79" y="252"/>
   <rect height="12.1" id="svg_35" width="17.9" x="184.84" y="78.4"/>
   <rect height="12.1" id="svg_36" width="17.9" x="210.58" y="252"/>
   <rect height="12.1" id="svg_37" width="17.9" x="113.25" y="78.4"/>
   <rect height="12.1" id="svg_38" width="17.9" x="139" y="252"/>
   <rect height="12.1" id="svg_39" width="17.9" x="149.05" y="78.4"/>
   <path d="m749.54,313.13l-58.74,-55.33l0,-5.8l-6.16,0l-50.3,-47.38l-242,0l0,47.38l-2.76,0l0,12.1l2.76,0l0,143.19l-119.34,0l-52.74,-75.49l-195.9,0a24.57,24.57 0 0 0 -24.36,24.74l0,460a16.83,16.83 0 0 0 0,1.74l0,4.48l0.61,0a22.72,22.72 0 0 0 4,8.2a22.45,22.45 0 0 0 18,8.88l472.26,0a22.52,22.52 0 0 0 21.69,-16.43l50.84,-139.41l182.14,0l0,-233.76l2.77,0l0,-12.1l-2.77,0l0,-125.01zm-31.7,-11.33l-71.91,0l0,-67.73l71.91,67.73zm-693.48,42.11l189.64,0l52.76,75.49l125.63,0l0,81.24l-262.51,0a22.64,22.64 0 0 0 -21.74,16.42l-96,263.24l0,-423.76a12.46,12.46 0 0 1 12.22,-12.63zm480.74,475.62l-0.16,0.52a10.42,10.42 0 0 1 -10.07,7.71l-472.26,0a10.53,10.53 0 0 1 -10.5,-10.64l0,0l0,-0.12a10.49,10.49 0 0 1 0.3,-2.22l107.18,-293.78l0.16,-0.49a10.5,10.5 0 0 1 10.13,-7.74l472.25,0c8.45,0 9.67,10.28 9.84,13.76l-106.87,293zm232.34,-147.59l-165.63,0l51.92,-142.36l0.37,-1l0,-1.07c0,-15.82 -9,-26.87 -22,-26.87l-197.6,0l0,-283.92l225,0l4.28,4l0,93.15l98.9,0l4.72,4.45l0.04,353.62z" id="svg_40"/>
   <path d="m542.82,545.1l-375.69,0a19.24,19.24 0 0 0 -18.45,13.82l-31.22,78.56l-0.22,0.65a19.22,19.22 0 0 0 18.55,24.21l375.7,0a19.15,19.15 0 0 0 18.41,-13.84l31.64,-79.63l0,-1.16c0,-13.32 -7.7,-22.61 -18.72,-22.61zm-24.29,99.23l-0.22,0.69a7,7 0 0 1 -6.82,5.21l-375.7,0a7.13,7.13 0 0 1 -6.94,-8.65l31.15,-78.48l0.22,-0.65a7.13,7.13 0 0 1 6.87,-5.25l375.73,0c5.41,0 6.4,6.69 6.57,9.44l-30.86,77.69z" id="svg_41"/>
   <circle cx="604.52" cy="81.07" fill="#9f1239" id="svg_42" r="49.04"/>
   <circle cx="184.27" cy="255.08" fill="#9f1239" id="svg_43" r="49.04" transform="matrix(1, 0, 0, 1, 0, 0)"/>
   <circle cx="304.61" cy="81.07" fill="#9f1239" id="svg_44" r="71.3" transform="matrix(1, 0, 0, 1, 0, 0)"/>
  </g>
 </g>
</svg>