<?xml version="1.0"?>
<svg width="850.39" height="850.39" xmlns="http://www.w3.org/2000/svg" xmlns:svg="http://www.w3.org/2000/svg">

 <g class="layer">
  <title>Layer 1</title>
  <g id="ICONS">
   <path d="m802,177.78l-90.46,0l-53.35,-175.53l-0.68,-2.25l-10.06,33.1l-44,144.68l-555.04,0a21.49,21.49 0 0 0 -21.41,21.46l0,495.57a21.49,21.49 0 0 0 21.46,21.46l262,0a106.84,106.84 0 0 1 2.44,27l-0.21,5.4a120.33,120.33 0 0 1 -1.69,13.4c-4.41,24.24 -41.78,29.28 -42.15,29.33l0,0.38l-22.85,0a21.48,21.48 0 0 0 -21.46,21.45l0,15.7a21.48,21.48 0 0 0 21.46,21.46l358.44,0a21.48,21.48 0 0 0 21.46,-21.46l0,-15.7a21.48,21.48 0 0 0 -21.46,-21.45l-22.88,0l0,-0.38c-0.37,0 -37.72,-5 -42.14,-29.33a122.73,122.73 0 0 1 -1.9,-18.81a106.42,106.42 0 0 1 2.48,-27l262,0a21.48,21.48 0 0 0 21.46,-21.46l0,-495.56a21.48,21.48 0 0 0 -21.46,-21.46zm-209.24,486.49l-520.59,0l0,-447.57l520.6,0l-0.01,447.57zm11.53,-448.6c7.24,-10 14.84,-15.07 22.59,-15.09l0,0c11.75,0 21.7,11.25 24.82,15.19l0,448.5l-47.42,0l0.01,-448.6zm59,448.59l0,-448.58c7.24,-10 14.84,-15.09 22.6,-15.1l0,0c11.76,0 21.7,11.25 24.82,15.19l0,448.5l-47.42,-0.01zm59,-447.56l56,0l0,447.57l-56,0l0,-447.57zm-36.33,-27.64l0,0c-10.31,0 -19.9,5.24 -28.58,15.54c-6,-6.37 -16.88,-15.54 -30.4,-15.54a31.2,31.2 0 0 0 -16.26,4.7l29.51,-97.12l31.47,-10.52l33.08,108.81a35.59,35.59 0 0 0 -18.87,-5.87l0.05,0zm-17.62,-114l-24,8l13.22,-43.5l10.78,35.5zm-140.69,644.57c-0.07,0.41 -0.15,0.82 -0.21,1.22c-0.15,0.91 -0.27,1.81 -0.4,2.72c0,0.19 0,0.37 -0.08,0.56q-0.44,3.36 -0.68,6.73c0,0.11 0,0.21 0,0.32c-0.07,1 -0.13,2 -0.17,3l0,0.75c0,0.86 -0.06,1.72 -0.07,2.58c0,0.06 0,0.13 0,0.19l-201.62,0a118.42,118.42 0 0 0 -2,-19.88l205.58,0c-0.16,0.61 -0.25,1.18 -0.35,1.81zm86.73,93.6l0,15.7a10,10 0 0 1 -9.94,9.94l-358.44,0a10,10 0 0 1 -9.94,-9.94l0,-15.7a9.94,9.94 0 0 1 9.94,-9.93l358.44,0a9.94,9.94 0 0 1 9.94,9.93zm-65.86,-21.45l-246.64,0c9.5,-5.84 18,-14.6 20.4,-27.66a133.59,133.59 0 0 0 1.82,-14.89l202.21,0a133.17,133.17 0 0 0 1.81,14.9c2.38,13.05 10.88,21.81 20.4,27.65zm263.4,-97a10,10 0 0 1 -9.94,9.94l-753.57,0a10,10 0 0 1 -9.94,-9.94l0,-495.54a10,10 0 0 1 9.94,-9.94l551.59,0l-4.82,15.88l-534.53,0l0,470.61l729.1,0l0,-470.61l-69.88,0l-4.87,-15.88l87,0a10,10 0 0 1 9.94,9.94l-0.02,495.54z" id="svg_1"/>
   <polygon id="svg_2" points="416.36 506.31 404.84 506.31 404.84 511.39 399.76 511.39 399.76 522.91 416.36 522.91 416.36 506.31"/>
   <rect height="11.52" id="svg_3" width="20.57" x="256.88" y="511.39"/>
   <rect height="11.52" id="svg_4" width="20.57" x="185.44" y="511.39"/>
   <rect height="11.52" id="svg_5" width="20.57" x="221.16" y="511.39"/>
   <rect height="11.52" id="svg_6" width="20.57" x="328.32" y="511.39"/>
   <rect height="11.52" id="svg_7" width="20.57" x="364.04" y="511.39"/>
   <polygon id="svg_8" points="170.29 511.39 165.21 511.39 165.21 506.31 153.69 506.31 153.69 522.91 170.29 522.91 170.29 511.39"/>
   <rect height="20.06" id="svg_9" width="11.52" x="153.69" y="436.65"/>
   <rect height="20.06" id="svg_10" width="11.52" x="153.69" y="401.83"/>
   <rect height="20.06" id="svg_11" width="11.52" x="153.69" y="471.48"/>
   <rect height="20.06" id="svg_12" width="11.52" x="153.69" y="332.18"/>
   <rect height="20.06" id="svg_13" width="11.52" x="153.69" y="367"/>
   <rect height="20.06" id="svg_14" width="11.52" x="153.69" y="297.35"/>
   <polygon id="svg_15" points="165.21 277.5 170.29 277.5 170.29 265.99 153.69 265.99 153.69 282.59 165.21 282.59 165.21 277.5"/>
   <rect height="11.52" id="svg_16" width="20.57" x="292.6" y="265.99"/>
   <rect height="11.52" id="svg_17" width="20.57" x="364.04" y="265.99"/>
   <rect height="11.52" id="svg_18" width="20.57" x="328.32" y="265.99"/>
   <rect height="11.52" id="svg_19" width="20.57" x="221.16" y="265.99"/>
   <rect height="11.52" id="svg_20" width="20.57" x="185.44" y="265.99"/>
   <rect height="11.52" id="svg_21" width="20.57" x="256.88" y="265.99"/>
   <polygon id="svg_22" points="404.84 282.59 416.36 282.59 416.36 265.99 399.76 265.99 399.76 277.5 404.84 277.5 404.84 282.59"/>
   <rect height="20.06" id="svg_23" width="11.52" x="404.84" y="332.18"/>
   <rect height="20.06" id="svg_24" width="11.52" x="404.84" y="401.83"/>
   <rect height="20.06" id="svg_25" width="11.52" x="404.84" y="297.35"/>
   <rect height="20.06" id="svg_26" width="11.52" x="404.84" y="436.65"/>
   <rect height="20.06" id="svg_27" width="11.52" x="404.84" y="471.48"/>
   <path d="m425.24,625.19a126,126 0 0 0 0,-252q-4.49,0 -8.88,0.32l0,-6.51l-11.52,0l0,7.89c-59.8,9.78 -105.58,61.8 -105.58,124.32q0,6.17 0.59,12.18l-7.25,0l0,11.52l8.9,0c11.12,58.17 62.37,102.28 123.74,102.28zm-114.46,-126a114.66,114.66 0 0 1 94.06,-112.64l0,0.49l11.52,0l0,-2c2.93,-0.22 5.89,-0.34 8.88,-0.34a114.46,114.46 0 1 1 -112.07,137.84l0,-11.15l-1.74,0a114,114 0 0 1 -0.65,-12.18l0,-0.02z" id="svg_28"/>
   <polygon fill="#9f1239" id="svg_29" points="286.88 415.15 335.41 499.21 383.94 583.27 286.88 583.27 189.81 583.27 238.34 499.21 286.88 415.15"/>
  </g>
 </g>
</svg>