<?xml version="1.0"?>
<svg width="850.39" height="850.39" xmlns="http://www.w3.org/2000/svg" xmlns:svg="http://www.w3.org/2000/svg">

 <g class="layer">
  <title>Layer 1</title>
  <g id="ICONS">
   <path d="m211.78,532.91l0,0.69l55.22,23.24l0,31l-84.67,-41.84l0,-26.26l84.67,-41.69l0,30.95l-55.22,23.91z" fill="#9f1239" id="svg_1"/>
   <path d="m367,609.57l-23.42,0l49.46,-181l23.54,0l-49.58,181z" fill="#9f1239" id="svg_2" transform="matrix(1, 0, 0, 1, 0, 0)"/>
   <path d="m546.68,533.25l0,-0.69l-55.76,-23.56l0,-30.95l85.31,41.69l0,26.34l-85.31,41.85l0,-30.87l55.76,-23.81z" fill="#9f1239" id="svg_3"/>
   <path d="m53.58,681l632.73,0l0,-376.84l-632.73,0l0,376.84zm8.48,-368.39l615.77,0l0,47.18l-615.77,0l0,-47.18zm0,55.66l615.77,0l0,304.28l-615.77,0l0,-304.28z" id="svg_4"/>
   <path d="m90.68,319.35a15.49,15.49 0 1 0 15.49,15.49a15.51,15.51 0 0 0 -15.49,-15.49zm0,22.5a7,7 0 1 1 7,-7a7,7 0 0 1 -7,7z" id="svg_5"/>
   <path d="m127,319.35a15.49,15.49 0 1 0 15.48,15.49a15.51,15.51 0 0 0 -15.48,-15.49zm0,22.5a7,7 0 1 1 7,-7a7,7 0 0 1 -7,7z" id="svg_6"/>
   <path d="m824.67,293l25.72,-10.42l-0.2,-3.06a214.64,214.64 0 0 0 -3.65,-27.42l-0.6,-3l-27.44,-3.66l-9.5,-23.53l17,-21.91l-1.54,-2.5a148.86,148.86 0 0 0 -16.61,-22.13l-2,-2.19l-25.57,10.34l-20,-15.52l3.62,-27.09l-4,-2.66l-0.57,-0.31c-7.74,-3.58 -15.74,-7.27 -23.82,-9.76l-2.8,-0.86l-17,21.87l-25,-3.5l-10.38,-26.26l-3.08,0.21c-9,0.59 -18.2,1.21 -27.43,3l-3,0.59l-3.65,27.47l-24.17,10.12l-21.87,-17l-2.5,1.55a149.32,149.32 0 0 0 -22.09,16.63l-2.19,2l7.8,19.27l-0.56,0l0,9.69l0.48,0l-12.9,16.64l-27.36,-3.65l-1.39,2.58a163,163 0 0 0 -11,25.76l-1,2.84l21.94,17.06l-1.13,8.05l-247,0l0,-2.82l-9.69,0l0,2.82l-218.62,0a42.1,42.1 0 0 0 -42,42.05l0,395.16l-27.92,0l0,29.63c0,12.12 18.08,21.25 42.05,21.25l659.37,0c24,0 42.05,-9.13 42.05,-21.25l0,-29.63l-27.88,0l0,-85l2.81,0l0,-9.69l-2.81,0l0,-156c0.81,-0.19 1.63,-0.38 2.45,-0.6l2.73,-0.73l3.64,-27.23l23.52,-9.51l21.89,17l2.5,-1.54a148.78,148.78 0 0 0 22.14,-16.61l2.18,-2l-10.34,-25.54l15.52,-20l27.36,3.64l1.39,-2.57a163,163 0 0 0 11,-25.76l1,-2.84l-21.89,-17l3.99,-24.47zm-788.32,11.23a33.61,33.61 0 0 1 33.57,-33.57l603.61,0a33.58,33.58 0 0 1 33.58,33.57l0,395.22l-670.76,0l0,-395.22zm698.65,403.7l0,21.15c0,5.33 -12.77,12.77 -33.57,12.77l-659.38,0c-20.8,0 -33.57,-7.44 -33.57,-12.77l0,-21.15l726.52,0zm-31.73,-433.44a41.77,41.77 0 0 0 -29.74,-12.31l-74.6,0a88.36,88.36 0 1 1 116.66,106.15l0,-64.1a41.82,41.82 0 0 0 -12.32,-29.74zm129.33,62.91a154.85,154.85 0 0 1 -8.13,19l-26.36,-3.51l-21.5,27.75l9.94,24.57a140.9,140.9 0 0 1 -16.19,12.14l-21.09,-16.41l-32.62,13.2l-1.06,8l0,-44.8a96.84,96.84 0 1 0 -125.42,-115.16l-36.37,0l1.64,-11.73l-21,-16.37a153.69,153.69 0 0 1 8.13,-19l26.35,3.52l21.51,-27.75l-9.95,-24.57a140.61,140.61 0 0 1 16.19,-12.14l21.11,16.42l33.22,-13.84l3.49,-26.25a202.51,202.51 0 0 1 20.28,-2.16l9.92,25.1l34.74,4.87l16.41,-21.09c6.32,2.18 12.74,5.1 19,8l-3.54,26.54l27.7,21.49l24.58,-9.94a143,143 0 0 1 12.14,16.19l-16.4,21.09l13.18,32.62l26.3,3.51a204.74,204.74 0 0 1 2.7,20.31l-24.43,9.89l-5.56,34.11l21.09,16.4z" id="svg_7"/>
   <rect height="12.85" id="svg_8" width="9.69" x="288.56" y="233.66"/>
   <rect height="12.85" id="svg_9" width="9.69" x="288.56" y="207.96"/>
   <polygon id="svg_10" points="298.25 192.9 300.46 192.9 300.46 183.21 288.56 183.21 288.56 195.11 298.25 195.11 298.25 192.9"/>
   <rect height="9.69" id="svg_11" width="14.59" x="490.08" y="183.21"/>
   <rect height="9.69" id="svg_12" width="14.59" x="431.73" y="183.21"/>
   <rect height="9.69" id="svg_13" width="14.59" x="548.42" y="183.21"/>
   <rect height="9.69" id="svg_14" width="14.59" x="519.25" y="183.21"/>
   <rect height="9.69" id="svg_15" width="14.59" x="460.9" y="183.21"/>
   <rect height="9.69" id="svg_16" width="14.59" x="402.56" y="183.21"/>
   <rect height="9.69" id="svg_17" width="14.59" x="344.22" y="183.21"/>
   <rect height="9.69" id="svg_18" width="14.59" x="315.05" y="183.21"/>
   <rect height="9.69" id="svg_19" width="14.59" x="373.39" y="183.21"/>
   <rect height="14.15" id="svg_20" width="9.69" x="803.11" y="517.65"/>
   <rect height="14.15" id="svg_21" width="9.69" x="803.11" y="489.36"/>
   <rect height="14.15" id="svg_22" width="9.69" x="803.11" y="461.07"/>
   <rect height="14.15" id="svg_23" width="9.69" x="803.11" y="404.48"/>
   <rect height="14.15" id="svg_24" width="9.69" x="803.11" y="376.19"/>
   <rect height="14.15" id="svg_25" width="9.69" x="803.11" y="432.77"/>
   <rect height="14.15" id="svg_26" width="9.69" x="803.11" y="545.94"/>
   <rect height="14.15" id="svg_27" width="9.69" x="803.11" y="574.23"/>
   <polygon id="svg_28" points="803.11 604.73 800.9 604.73 800.9 614.42 812.8 614.42 812.8 602.52 803.11 602.52 803.11 604.73"/>
   <rect height="9.69" id="svg_29" width="16.5" x="767.9" y="604.73"/>
   <rect height="9.69" id="svg_30" width="16.5" x="734.9" y="604.73"/>
  </g>
 </g>
</svg>